# xmcd
#
# Track frame offsets:
# 150
# 34466
# 67453
# 97389
# 129631
# 163976
# 194204
# 224314
# 256471
# 279106
# 303645
# 328248
#
# Disc length: 4641 seconds
#
#
# Revision: 0
# Processed by: cddbd v1.5.2PL0 Copyright (c) Steve Scherf et al.
# Submitted via: FreeRIP 2.944 
#
DISCID=d3121f0c
DTITLE=Herriot-J1981 - Lord-God-Made-All01
DYEAR=1981
DGENRE=Jungle
TTITLE0=LGMTA 0101
TTITLE1=LGMTA 0102
TTITLE2=LGMTA 0103
TTITLE3=LGMTA 0104
TTITLE4=LGMTA 0105
TTITLE5=LGMTA 0106
TTITLE6=LGMTA 0107
TTITLE7=LGMTA 0108
TTITLE8=LGMTA 0109
TTITLE9=LGMTA 0110
TTITLE10=LGMTA 0111
TTITLE11=LGMTA 0112
EXTD=The Lord God Made Them All \nby James Harriot read by Christopher Timothy\nAudio Renaissance - jungle country
EXTT0=
EXTT1=
EXTT2=
EXTT3=
EXTT4=
EXTT5=
EXTT6=
EXTT7=
EXTT8=
EXTT9=
EXTT10=
EXTT11=
PLAYORDER=
